<?xml version="1.0" encoding="UTF-8" standalone="no"?><svg xmlns="http://www.w3.org/2000/svg" xmlns:xlink="http://www.w3.org/1999/xlink" contentScriptType="application/ecmascript" contentStyleType="text/css" height="1178px" preserveAspectRatio="none" style="width:516px;height:1178px;" version="1.1" viewBox="0 0 516 1178" width="516px" zoomAndPan="magnify"><defs><filter height="300%" id="fgp2n0verppwf" width="300%" x="-1" y="-1"><feGaussianBlur result="blurOut" stdDeviation="2.0"/><feColorMatrix in="blurOut" result="blurOut2" type="matrix" values="0 0 0 0 0 0 0 0 0 0 0 0 0 0 0 0 0 0 .4 0"/><feOffset dx="4.0" dy="4.0" in="blurOut2" result="blurOut3"/><feBlend in="SourceGraphic" in2="blurOut3" mode="normal"/></filter></defs><g><!--MD5=[674eb6a913c467caa1328947558fda8d]
class C_0001275076681856179721--><rect fill="#FEFECE" filter="url(#fgp2n0verppwf)" height="48" id="C_0001275076681856179721" style="stroke: #A80036; stroke-width: 1.5;" width="87" x="264.5" y="1119"/><ellipse cx="279.5" cy="1135" fill="#ADD1B2" rx="11" ry="11" style="stroke: #A80036; stroke-width: 1.0;"/><path d="M282.4688,1140.6406 Q281.8906,1140.9375 281.25,1141.0781 Q280.6094,1141.2344 279.9063,1141.2344 Q277.4063,1141.2344 276.0781,1139.5938 Q274.7656,1137.9375 274.7656,1134.8125 Q274.7656,1131.6875 276.0781,1130.0313 Q277.4063,1128.375 279.9063,1128.375 Q280.6094,1128.375 281.25,1128.5313 Q281.9063,1128.6875 282.4688,1128.9844 L282.4688,1131.7031 Q281.8438,1131.125 281.25,1130.8594 Q280.6563,1130.5781 280.0313,1130.5781 Q278.6875,1130.5781 278,1131.6563 Q277.3125,1132.7188 277.3125,1134.8125 Q277.3125,1136.9063 278,1137.9844 Q278.6875,1139.0469 280.0313,1139.0469 Q280.6563,1139.0469 281.25,1138.7813 Q281.8438,1138.5 282.4688,1137.9219 L282.4688,1140.6406 Z "/><text fill="#000000" font-family="sans-serif" font-size="12" lengthAdjust="spacingAndGlyphs" textLength="55" x="293.5" y="1139.656">std::string</text><line style="stroke: #A80036; stroke-width: 1.5;" x1="265.5" x2="350.5" y1="1151" y2="1151"/><line style="stroke: #A80036; stroke-width: 1.5;" x1="265.5" x2="350.5" y1="1159" y2="1159"/><!--MD5=[74bf9a3d40c7f4533bd0c40960dc4cdd]
class C_0001347152004389415025--><rect fill="#FEFECE" filter="url(#fgp2n0verppwf)" height="48" id="C_0001347152004389415025" style="stroke: #A80036; stroke-width: 1.5;" width="147" x="234.5" y="1010"/><ellipse cx="249.5" cy="1026" fill="#ADD1B2" rx="11" ry="11" style="stroke: #A80036; stroke-width: 1.0;"/><path d="M252.4688,1031.6406 Q251.8906,1031.9375 251.25,1032.0781 Q250.6094,1032.2344 249.9063,1032.2344 Q247.4063,1032.2344 246.0781,1030.5938 Q244.7656,1028.9375 244.7656,1025.8125 Q244.7656,1022.6875 246.0781,1021.0313 Q247.4063,1019.375 249.9063,1019.375 Q250.6094,1019.375 251.25,1019.5313 Q251.9063,1019.6875 252.4688,1019.9844 L252.4688,1022.7031 Q251.8438,1022.125 251.25,1021.8594 Q250.6563,1021.5781 250.0313,1021.5781 Q248.6875,1021.5781 248,1022.6563 Q247.3125,1023.7188 247.3125,1025.8125 Q247.3125,1027.9063 248,1028.9844 Q248.6875,1030.0469 250.0313,1030.0469 Q250.6563,1030.0469 251.25,1029.7813 Q251.8438,1029.5 252.4688,1028.9219 L252.4688,1031.6406 Z "/><text fill="#000000" font-family="sans-serif" font-size="12" lengthAdjust="spacingAndGlyphs" textLength="58" x="263.5" y="1030.656">std::vector</text><rect fill="#FFFFFF" height="18.3441" style="stroke: #000000; stroke-width: 1.0; stroke-dasharray: 2.0,2.0;" width="55" x="329.5" y="1007"/><text fill="#000000" font-family="sans-serif" font-size="12" font-style="italic" lengthAdjust="spacingAndGlyphs" textLength="53" x="330.5" y="1020.8281">std::string</text><line style="stroke: #A80036; stroke-width: 1.5;" x1="235.5" x2="380.5" y1="1042" y2="1042"/><line style="stroke: #A80036; stroke-width: 1.5;" x1="235.5" x2="380.5" y1="1050" y2="1050"/><!--MD5=[475cd285c63bea5e1b40024a75e92935]
class C_0011421706713288580637--><rect fill="#FEFECE" filter="url(#fgp2n0verppwf)" height="220.8008" id="C_0011421706713288580637" style="stroke: #A80036; stroke-width: 1.5;" width="282" x="6" y="710"/><ellipse cx="128.75" cy="726" fill="#ADD1B2" rx="11" ry="11" style="stroke: #A80036; stroke-width: 1.0;"/><path d="M131.7188,731.6406 Q131.1406,731.9375 130.5,732.0781 Q129.8594,732.2344 129.1563,732.2344 Q126.6563,732.2344 125.3281,730.5938 Q124.0156,728.9375 124.0156,725.8125 Q124.0156,722.6875 125.3281,721.0313 Q126.6563,719.375 129.1563,719.375 Q129.8594,719.375 130.5,719.5313 Q131.1563,719.6875 131.7188,719.9844 L131.7188,722.7031 Q131.0938,722.125 130.5,721.8594 Q129.9063,721.5781 129.2813,721.5781 Q127.9375,721.5781 127.25,722.6563 Q126.5625,723.7188 126.5625,725.8125 Q126.5625,727.9063 127.25,728.9844 Q127.9375,730.0469 129.2813,730.0469 Q129.9063,730.0469 130.5,729.7813 Q131.0938,729.5 131.7188,728.9219 L131.7188,731.6406 Z "/><text fill="#000000" font-family="sans-serif" font-size="12" lengthAdjust="spacingAndGlyphs" textLength="28" x="149.25" y="730.656">Deck</text><line style="stroke: #A80036; stroke-width: 1.5;" x1="7" x2="287" y1="742" y2="742"/><ellipse cx="17" cy="753" fill="#84BE84" rx="3" ry="3" style="stroke: #038048; stroke-width: 1.0;"/><text fill="#000000" font-family="sans-serif" font-size="11" lengthAdjust="spacingAndGlyphs" textLength="134" x="26" y="757.7589">Deck(int numDecks) : void</text><ellipse cx="17" cy="767.9819" fill="#84BE84" rx="3" ry="3" style="stroke: #038048; stroke-width: 1.0;"/><text fill="#000000" font-family="sans-serif" font-size="11" lengthAdjust="spacingAndGlyphs" textLength="256" x="26" y="772.7408">Deck(const std::vector&lt;std::string&gt; &amp; cards) : void</text><line style="stroke: #A80036; stroke-width: 1.0; stroke-dasharray: 1.0,2.0;" x1="7" x2="287" y1="779.9638" y2="779.9638"/><ellipse cx="17" cy="790.9638" fill="#84BE84" rx="3" ry="3" style="stroke: #038048; stroke-width: 1.0;"/><text fill="#000000" font-family="sans-serif" font-size="11" lengthAdjust="spacingAndGlyphs" textLength="161" x="26" y="795.7227">buildDeck(int numDecks) : void</text><ellipse cx="17" cy="805.9457" fill="#84BE84" rx="3" ry="3" style="stroke: #038048; stroke-width: 1.0;"/><text fill="#000000" font-family="sans-serif" font-size="11" lengthAdjust="spacingAndGlyphs" textLength="95" x="26" y="810.7046">draw() : std::string</text><ellipse cx="17" cy="820.9276" fill="#84BE84" rx="3" ry="3" style="stroke: #038048; stroke-width: 1.0;"/><text fill="#000000" font-family="sans-serif" font-size="11" lengthAdjust="spacingAndGlyphs" textLength="64" x="26" y="825.6865">reset() : void</text><ellipse cx="17" cy="835.9094" fill="#84BE84" rx="3" ry="3" style="stroke: #038048; stroke-width: 1.0;"/><text fill="#000000" font-family="sans-serif" font-size="11" lengthAdjust="spacingAndGlyphs" textLength="74" x="26" y="840.6684">shuffle() : void</text><ellipse cx="17" cy="850.8913" fill="#84BE84" rx="3" ry="3" style="stroke: #038048; stroke-width: 1.0;"/><text fill="#000000" font-family="sans-serif" font-size="11" lengthAdjust="spacingAndGlyphs" textLength="48" x="26" y="855.6502">size() : int</text><line style="stroke: #A80036; stroke-width: 1.5;" x1="7" x2="287" y1="862.8732" y2="862.8732"/><rect fill="none" height="6" style="stroke: #C82930; stroke-width: 1.0;" width="6" x="14" y="870.8732"/><text fill="#000000" font-family="sans-serif" font-size="11" lengthAdjust="spacingAndGlyphs" text-decoration="underline" textLength="195" x="26" y="878.6321">RANKS : const std::vector&lt;std::string&gt;</text><rect fill="none" height="6" style="stroke: #C82930; stroke-width: 1.0;" width="6" x="14" y="885.8551"/><text fill="#000000" font-family="sans-serif" font-size="11" lengthAdjust="spacingAndGlyphs" text-decoration="underline" textLength="190" x="26" y="893.614">SUITS : const std::vector&lt;std::string&gt;</text><rect fill="none" height="6" style="stroke: #C82930; stroke-width: 1.0;" width="6" x="14" y="900.837"/><text fill="#000000" font-family="sans-serif" font-size="11" lengthAdjust="spacingAndGlyphs" textLength="153" x="26" y="908.5959">deck : std::vector&lt;std::string&gt;</text><rect fill="none" height="6" style="stroke: #C82930; stroke-width: 1.0;" width="6" x="14" y="915.8189"/><text fill="#000000" font-family="sans-serif" font-size="11" lengthAdjust="spacingAndGlyphs" textLength="77" x="26" y="923.5778">numDecks : int</text><!--MD5=[4b8af414dec341329548f7b3d459b3de]
class C_0003605716991605700936--><rect fill="#FEFECE" filter="url(#fgp2n0verppwf)" height="370.6196" id="C_0003605716991605700936" style="stroke: #A80036; stroke-width: 1.5;" width="285" x="220.5" y="278"/><ellipse cx="341.25" cy="294" fill="#ADD1B2" rx="11" ry="11" style="stroke: #A80036; stroke-width: 1.0;"/><path d="M344.2188,299.6406 Q343.6406,299.9375 343,300.0781 Q342.3594,300.2344 341.6563,300.2344 Q339.1563,300.2344 337.8281,298.5938 Q336.5156,296.9375 336.5156,293.8125 Q336.5156,290.6875 337.8281,289.0313 Q339.1563,287.375 341.6563,287.375 Q342.3594,287.375 343,287.5313 Q343.6563,287.6875 344.2188,287.9844 L344.2188,290.7031 Q343.5938,290.125 343,289.8594 Q342.4063,289.5781 341.7813,289.5781 Q340.4375,289.5781 339.75,290.6563 Q339.0625,291.7188 339.0625,293.8125 Q339.0625,295.9063 339.75,296.9844 Q340.4375,298.0469 341.7813,298.0469 Q342.4063,298.0469 343,297.7813 Q343.5938,297.5 344.2188,296.9219 L344.2188,299.6406 Z "/><text fill="#000000" font-family="sans-serif" font-size="12" lengthAdjust="spacingAndGlyphs" textLength="35" x="361.75" y="298.656">Player</text><line style="stroke: #A80036; stroke-width: 1.5;" x1="221.5" x2="504.5" y1="310" y2="310"/><ellipse cx="231.5" cy="321" fill="#84BE84" rx="3" ry="3" style="stroke: #038048; stroke-width: 1.0;"/><text fill="#000000" font-family="sans-serif" font-size="11" lengthAdjust="spacingAndGlyphs" textLength="259" x="240.5" y="325.7589">Player(const std::string &amp; name, int budget) : void</text><line style="stroke: #A80036; stroke-width: 1.0; stroke-dasharray: 1.0,2.0;" x1="221.5" x2="504.5" y1="332.9819" y2="332.9819"/><ellipse cx="231.5" cy="343.9819" fill="#84BE84" rx="3" ry="3" style="stroke: #038048; stroke-width: 1.0;"/><text fill="#000000" font-family="sans-serif" font-size="11" lengthAdjust="spacingAndGlyphs" textLength="156" x="240.5" y="348.7408">drawFrom(Deck &amp; deck) : void</text><ellipse cx="231.5" cy="358.9638" fill="#84BE84" rx="3" ry="3" style="stroke: #038048; stroke-width: 1.0;"/><text fill="#000000" font-family="sans-serif" font-size="11" lengthAdjust="spacingAndGlyphs" textLength="115" x="240.5" y="363.7227">getBudget() const : int</text><ellipse cx="231.5" cy="373.9457" fill="#84BE84" rx="3" ry="3" style="stroke: #038048; stroke-width: 1.0;"/><text fill="#000000" font-family="sans-serif" font-size="11" lengthAdjust="spacingAndGlyphs" textLength="134" x="240.5" y="378.7046">getHandValue() const : int</text><ellipse cx="231.5" cy="388.9276" fill="#84BE84" rx="3" ry="3" style="stroke: #038048; stroke-width: 1.0;"/><text fill="#000000" font-family="sans-serif" font-size="11" lengthAdjust="spacingAndGlyphs" textLength="146" x="240.5" y="393.6865">getName() const : std::string</text><ellipse cx="231.5" cy="403.9094" fill="#84BE84" rx="3" ry="3" style="stroke: #038048; stroke-width: 1.0;"/><text fill="#000000" font-family="sans-serif" font-size="11" lengthAdjust="spacingAndGlyphs" textLength="105" x="240.5" y="408.6684">getStake() const : int</text><ellipse cx="231.5" cy="418.8913" fill="#84BE84" rx="3" ry="3" style="stroke: #038048; stroke-width: 1.0;"/><text fill="#000000" font-family="sans-serif" font-size="11" lengthAdjust="spacingAndGlyphs" textLength="164" x="240.5" y="423.6502">giveCard(std::string card) : void</text><ellipse cx="231.5" cy="433.8732" fill="#84BE84" rx="3" ry="3" style="stroke: #038048; stroke-width: 1.0;"/><text fill="#000000" font-family="sans-serif" font-size="11" lengthAdjust="spacingAndGlyphs" textLength="171" x="240.5" y="438.6321">handToString() const : std::string</text><ellipse cx="231.5" cy="448.8551" fill="#84BE84" rx="3" ry="3" style="stroke: #038048; stroke-width: 1.0;"/><text fill="#000000" font-family="sans-serif" font-size="11" lengthAdjust="spacingAndGlyphs" textLength="127" x="240.5" y="453.614">hasNatural() const : bool</text><ellipse cx="231.5" cy="463.837" fill="#84BE84" rx="3" ry="3" style="stroke: #038048; stroke-width: 1.0;"/><text fill="#000000" font-family="sans-serif" font-size="11" lengthAdjust="spacingAndGlyphs" textLength="92" x="240.5" y="468.5959">resetHand() : void</text><ellipse cx="231.5" cy="478.8189" fill="#84BE84" rx="3" ry="3" style="stroke: #038048; stroke-width: 1.0;"/><text fill="#000000" font-family="sans-serif" font-size="11" lengthAdjust="spacingAndGlyphs" textLength="168" x="240.5" y="483.5778">setBudget(int newBudget) : void</text><ellipse cx="231.5" cy="493.8008" fill="#84BE84" rx="3" ry="3" style="stroke: #038048; stroke-width: 1.0;"/><text fill="#000000" font-family="sans-serif" font-size="11" lengthAdjust="spacingAndGlyphs" textLength="199" x="240.5" y="498.5597">setHasNatural(bool newNatural) : void</text><ellipse cx="231.5" cy="508.7827" fill="#84BE84" rx="3" ry="3" style="stroke: #038048; stroke-width: 1.0;"/><text fill="#000000" font-family="sans-serif" font-size="11" lengthAdjust="spacingAndGlyphs" textLength="148" x="240.5" y="513.5416">setStake(int newStake) : void</text><ellipse cx="231.5" cy="523.7645" fill="#84BE84" rx="3" ry="3" style="stroke: #038048; stroke-width: 1.0;"/><text fill="#000000" font-family="sans-serif" font-size="11" lengthAdjust="spacingAndGlyphs" textLength="135" x="240.5" y="528.5235">showBudget() const : void</text><ellipse cx="231.5" cy="538.7464" fill="#84BE84" rx="3" ry="3" style="stroke: #038048; stroke-width: 1.0;"/><text fill="#000000" font-family="sans-serif" font-size="11" lengthAdjust="spacingAndGlyphs" textLength="145" x="240.5" y="543.5053">showFirstCard() const : void</text><ellipse cx="231.5" cy="553.7283" fill="#84BE84" rx="3" ry="3" style="stroke: #038048; stroke-width: 1.0;"/><text fill="#000000" font-family="sans-serif" font-size="11" lengthAdjust="spacingAndGlyphs" textLength="125" x="240.5" y="558.4872">showHand() const : void</text><line style="stroke: #A80036; stroke-width: 1.5;" x1="221.5" x2="504.5" y1="565.7102" y2="565.7102"/><rect fill="none" height="6" style="stroke: #C82930; stroke-width: 1.0;" width="6" x="228.5" y="573.7102"/><text fill="#000000" font-family="sans-serif" font-size="11" lengthAdjust="spacingAndGlyphs" textLength="61" x="240.5" y="581.4691">budget : int</text><rect fill="none" height="6" style="stroke: #C82930; stroke-width: 1.0;" width="6" x="228.5" y="588.6921"/><text fill="#000000" font-family="sans-serif" font-size="11" lengthAdjust="spacingAndGlyphs" textLength="156" x="240.5" y="596.451">hand : std::vector&lt;std::string&gt;</text><rect fill="none" height="6" style="stroke: #C82930; stroke-width: 1.0;" width="6" x="228.5" y="603.674"/><text fill="#000000" font-family="sans-serif" font-size="11" lengthAdjust="spacingAndGlyphs" textLength="137" x="240.5" y="611.4329">hasNaturalAttribute : bool</text><rect fill="none" height="6" style="stroke: #C82930; stroke-width: 1.0;" width="6" x="228.5" y="618.6559"/><text fill="#000000" font-family="sans-serif" font-size="11" lengthAdjust="spacingAndGlyphs" textLength="91" x="240.5" y="626.4148">name : std::string</text><rect fill="none" height="6" style="stroke: #C82930; stroke-width: 1.0;" width="6" x="228.5" y="633.6378"/><text fill="#000000" font-family="sans-serif" font-size="11" lengthAdjust="spacingAndGlyphs" textLength="50" x="240.5" y="641.3967">stake : int</text><!--MD5=[40b15c2b92f010c1f79294344a67785b]
class C_0011002318344043217156--><rect fill="#FEFECE" filter="url(#fgp2n0verppwf)" height="190.837" id="C_0011002318344043217156" style="stroke: #A80036; stroke-width: 1.5;" width="346" x="99" y="8"/><ellipse cx="241.75" cy="24" fill="#ADD1B2" rx="11" ry="11" style="stroke: #A80036; stroke-width: 1.0;"/><path d="M244.7188,29.6406 Q244.1406,29.9375 243.5,30.0781 Q242.8594,30.2344 242.1563,30.2344 Q239.6563,30.2344 238.3281,28.5938 Q237.0156,26.9375 237.0156,23.8125 Q237.0156,20.6875 238.3281,19.0313 Q239.6563,17.375 242.1563,17.375 Q242.8594,17.375 243.5,17.5313 Q244.1563,17.6875 244.7188,17.9844 L244.7188,20.7031 Q244.0938,20.125 243.5,19.8594 Q242.9063,19.5781 242.2813,19.5781 Q240.9375,19.5781 240.25,20.6563 Q239.5625,21.7188 239.5625,23.8125 Q239.5625,25.9063 240.25,26.9844 Q240.9375,28.0469 242.2813,28.0469 Q242.9063,28.0469 243.5,27.7813 Q244.0938,27.5 244.7188,26.9219 L244.7188,29.6406 Z "/><text fill="#000000" font-family="sans-serif" font-size="12" lengthAdjust="spacingAndGlyphs" textLength="52" x="262.25" y="28.656">Blackjack</text><line style="stroke: #A80036; stroke-width: 1.5;" x1="100" x2="444" y1="40" y2="40"/><ellipse cx="110" cy="51" fill="#84BE84" rx="3" ry="3" style="stroke: #038048; stroke-width: 1.0;"/><text fill="#000000" font-family="sans-serif" font-size="11" lengthAdjust="spacingAndGlyphs" textLength="320" x="119" y="55.7589">Blackjack(Player &amp; dealer, Player &amp; player, Deck &amp; deck) : void</text><line style="stroke: #A80036; stroke-width: 1.0; stroke-dasharray: 1.0,2.0;" x1="100" x2="444" y1="62.9819" y2="62.9819"/><rect fill="#F24D5C" height="6" style="stroke: #C82930; stroke-width: 1.0;" width="6" x="107" y="70.9819"/><text fill="#000000" font-family="sans-serif" font-size="11" lengthAdjust="spacingAndGlyphs" textLength="119" x="119" y="78.7408">evaluateResults() : void</text><rect fill="#F24D5C" height="6" style="stroke: #C82930; stroke-width: 1.0;" width="6" x="107" y="85.9638"/><text fill="#000000" font-family="sans-serif" font-size="11" lengthAdjust="spacingAndGlyphs" textLength="263" x="119" y="93.7227">performPlayerTurn(Player &amp; p, Deck &amp; deck) : void</text><ellipse cx="110" cy="103.9457" fill="#84BE84" rx="3" ry="3" style="stroke: #038048; stroke-width: 1.0;"/><text fill="#000000" font-family="sans-serif" font-size="11" lengthAdjust="spacingAndGlyphs" textLength="95" x="119" y="108.7046">playRound() : void</text><rect fill="#F24D5C" height="6" style="stroke: #C82930; stroke-width: 1.0;" width="6" x="107" y="115.9276"/><text fill="#000000" font-family="sans-serif" font-size="11" lengthAdjust="spacingAndGlyphs" textLength="191" x="119" y="123.6865">readDecision(const Player &amp; p) : char</text><rect fill="#F24D5C" height="6" style="stroke: #C82930; stroke-width: 1.0;" width="6" x="107" y="130.9094"/><text fill="#000000" font-family="sans-serif" font-size="11" lengthAdjust="spacingAndGlyphs" textLength="81" x="119" y="138.6684">setStake() : void</text><line style="stroke: #A80036; stroke-width: 1.5;" x1="100" x2="444" y1="145.8913" y2="145.8913"/><rect fill="none" height="6" style="stroke: #C82930; stroke-width: 1.0;" width="6" x="107" y="153.8913"/><text fill="#000000" font-family="sans-serif" font-size="11" lengthAdjust="spacingAndGlyphs" textLength="86" x="119" y="161.6502">dealer : Player &amp;</text><rect fill="none" height="6" style="stroke: #C82930; stroke-width: 1.0;" width="6" x="107" y="168.8732"/><text fill="#000000" font-family="sans-serif" font-size="11" lengthAdjust="spacingAndGlyphs" textLength="69" x="119" y="176.6321">deck : Deck &amp;</text><rect fill="none" height="6" style="stroke: #C82930; stroke-width: 1.0;" width="6" x="107" y="183.8551"/><text fill="#000000" font-family="sans-serif" font-size="11" lengthAdjust="spacingAndGlyphs" textLength="86" x="119" y="191.614">player : Player &amp;</text><!--MD5=[a70438e0298fd2bf4eb7c0b4e914ed3c]
link C_0001347152004389415025 to C_0001275076681856179721--><path d="M308,1058.22 C308,1074.48 308,1096.32 308,1113.62 " fill="none" id="C_0001347152004389415025-&gt;C_0001275076681856179721" style="stroke: #A80036; stroke-width: 1.0; stroke-dasharray: 7.0,7.0;"/><polygon fill="#A80036" points="308,1118.83,312,1109.83,308,1113.83,304,1109.83,308,1118.83" style="stroke: #A80036; stroke-width: 1.0;"/><!--MD5=[7318eadab637af73340a0319831ffca3]
link C_0011421706713288580637 to C_0001275076681856179721--><path d="M166.47,931.14 C177.13,972.96 193.19,1019.73 217,1058 C230.94,1080.4 252.43,1100.63 271.02,1115.62 " fill="none" id="C_0011421706713288580637-&gt;C_0001275076681856179721" style="stroke: #A80036; stroke-width: 1.0; stroke-dasharray: 7.0,7.0;"/><polygon fill="#A80036" points="275.18,1118.93,270.6276,1110.1964,271.2673,1115.817,265.6467,1116.4567,275.18,1118.93" style="stroke: #A80036; stroke-width: 1.0;"/><!--MD5=[cb815bb2d3b61bda4bf1cc2b5beeeafc]
reverse link C_0011421706713288580637 to C_0001347152004389415025--><path d="M238.51,941.71 C258.36,967.79 277.31,992.68 290.38,1009.86 " fill="none" id="C_0011421706713288580637&lt;-C_0001347152004389415025" style="stroke: #A80036; stroke-width: 1.0;"/><polygon fill="#FFFFFF" points="230.57,931.28,231.0269,938.4766,237.8457,940.8228,237.3888,933.6261,230.57,931.28" style="stroke: #A80036; stroke-width: 1.0;"/><rect fill="none" height="6" style="stroke: #C82930; stroke-width: 1.0;" width="6" x="267" y="968.353"/><text fill="#000000" font-family="sans-serif" font-size="13" lengthAdjust="spacingAndGlyphs" textLength="28" x="277" y="975.897">deck</text><!--MD5=[bf3137ed109d2829a22cd3d578bb4e95]
link C_0003605716991605700936 to C_0011421706713288580637--><path d="M250.73,649.02 C239.09,668.14 227.52,687.16 216.56,705.17 " fill="none" id="C_0003605716991605700936-&gt;C_0011421706713288580637" style="stroke: #A80036; stroke-width: 1.0; stroke-dasharray: 7.0,7.0;"/><polygon fill="#A80036" points="213.79,709.73,221.8863,704.122,216.3897,705.459,215.0527,699.9624,213.79,709.73" style="stroke: #A80036; stroke-width: 1.0;"/><!--MD5=[380b0eb9ffa32a53a949b7353c6e8beb]
reverse link C_0003605716991605700936 to C_0001275076681856179721--><path d="M419.11,661.95 C442.52,781.39 453.28,934.03 399,1058 C387.96,1083.21 365.21,1104.21 345.22,1118.91 " fill="none" id="C_0003605716991605700936&lt;-C_0001275076681856179721" style="stroke: #A80036; stroke-width: 1.0;"/><polygon fill="#FFFFFF" points="416.5,649.03,413.7659,655.7027,418.8737,660.7929,421.6078,654.1202,416.5,649.03" style="stroke: #A80036; stroke-width: 1.0;"/><rect fill="none" height="6" style="stroke: #C82930; stroke-width: 1.0;" width="6" x="431" y="968.353"/><text fill="#000000" font-family="sans-serif" font-size="13" lengthAdjust="spacingAndGlyphs" textLength="34" x="441" y="975.897">name</text><!--MD5=[2fe691aaa081610b80ff040436309dee]
reverse link C_0003605716991605700936 to C_0001347152004389415025--><path d="M345.04,662.29 C336.11,758.24 324.91,875.17 314,980 C312.98,989.76 311.78,1000.53 310.72,1009.79 " fill="none" id="C_0003605716991605700936&lt;-C_0001347152004389415025" style="stroke: #A80036; stroke-width: 1.0;"/><polygon fill="#FFFFFF" points="346.25,649.19,341.7132,654.7951,345.1422,661.1388,349.679,655.5337,346.25,649.19" style="stroke: #A80036; stroke-width: 1.0;"/><rect fill="none" height="6" style="stroke: #C82930; stroke-width: 1.0;" width="6" x="343" y="818.353"/><text fill="#000000" font-family="sans-serif" font-size="13" lengthAdjust="spacingAndGlyphs" textLength="31" x="353" y="825.897">hand</text><!--MD5=[58f8eadb0c00a523755b72b2e51f36a7]
link C_0011002318344043217156 to C_0003605716991605700936--><path d="M263.95,199.24 C264.28,215.62 265.73,232.39 269,248 C270.71,256.16 272.75,264.38 275.05,272.61 " fill="none" id="C_0011002318344043217156-&gt;C_0003605716991605700936" style="stroke: #A80036; stroke-width: 1.0;"/><polygon fill="#A80036" points="276.52,277.74,277.8936,267.9874,275.1464,272.9324,270.2014,270.1852,276.52,277.74" style="stroke: #A80036; stroke-width: 1.0;"/><rect fill="none" height="6" style="stroke: #C82930; stroke-width: 1.0;" width="6" x="272" y="236.353"/><text fill="#000000" font-family="sans-serif" font-size="13" lengthAdjust="spacingAndGlyphs" textLength="37" x="282" y="243.897">player</text><!--MD5=[58f8eadb0c00a523755b72b2e51f36a7]
link C_0011002318344043217156 to C_0003605716991605700936--><path d="M314.17,199.2 C317.81,209.15 321.18,219.21 324,229 C328.06,243.1 331.75,257.82 335.09,272.69 " fill="none" id="C_0011002318344043217156-&gt;C_0003605716991605700936-1" style="stroke: #A80036; stroke-width: 1.0;"/><polygon fill="#A80036" points="336.21,277.75,338.1893,268.1021,335.139,272.8661,330.375,269.8157,336.21,277.75" style="stroke: #A80036; stroke-width: 1.0;"/><rect fill="none" height="6" style="stroke: #C82930; stroke-width: 1.0;" width="6" x="332" y="236.353"/><text fill="#000000" font-family="sans-serif" font-size="13" lengthAdjust="spacingAndGlyphs" textLength="37" x="342" y="243.897">dealer</text><!--MD5=[dc4b590750200f5c2ca5136c199593fa]
link C_0011002318344043217156 to C_0011421706713288580637--><path d="M198.35,199.44 C183.2,223.79 169.33,250.82 161,278 C117.45,420.05 122.32,593.02 132.43,704.63 " fill="none" id="C_0011002318344043217156-&gt;C_0011421706713288580637" style="stroke: #A80036; stroke-width: 1.0;"/><polygon fill="#A80036" points="132.92,709.9,136.0791,700.5715,132.4622,704.921,128.1127,701.3041,132.92,709.9" style="stroke: #A80036; stroke-width: 1.0;"/><rect fill="none" height="6" style="stroke: #C82930; stroke-width: 1.0;" width="6" x="164" y="461.353"/><text fill="#000000" font-family="sans-serif" font-size="13" lengthAdjust="spacingAndGlyphs" textLength="28" x="174" y="468.897">deck</text><!--MD5=[ca03cafe7f51f1caa31394d13724edce]
@startuml
class "std::string" as C_0001275076681856179721
class C_0001275076681856179721 {
__
}
class "std::vector<std::string>" as C_0001347152004389415025
class C_0001347152004389415025 {
__
}
class "Deck" as C_0011421706713288580637
class C_0011421706713288580637 {
+Deck(int numDecks) : void
+Deck(const std::vector<std::string> & cards) : void
..
+buildDeck(int numDecks) : void
+draw() : std::string
+reset() : void
+shuffle() : void
+size() : int
__
{static} -RANKS : const std::vector<std::string>
{static} -SUITS : const std::vector<std::string>
-deck : std::vector<std::string>
-numDecks : int
}
class "Player" as C_0003605716991605700936
class C_0003605716991605700936 {
+Player(const std::string & name, int budget) : void
..
+drawFrom(Deck & deck) : void
+getBudget() const : int
+getHandValue() const : int
+getName() const : std::string
+getStake() const : int
+giveCard(std::string card) : void
+handToString() const : std::string
+hasNatural() const : bool
+resetHand() : void
+setBudget(int newBudget) : void
+setHasNatural(bool newNatural) : void
+setStake(int newStake) : void
+showBudget() const : void
+showFirstCard() const : void
+showHand() const : void
__
-budget : int
-hand : std::vector<std::string>
-hasNaturalAttribute : bool
-name : std::string
-stake : int
}
class "Blackjack" as C_0011002318344043217156
class C_0011002318344043217156 {
+Blackjack(Player & dealer, Player & player, Deck & deck) : void
..
-evaluateResults() : void
-performPlayerTurn(Player & p, Deck & deck) : void
+playRound() : void
-readDecision(const Player & p) : char
-setStake() : void
__
-dealer : Player &
-deck : Deck &
-player : Player &
}
C_0001347152004389415025 ..> C_0001275076681856179721
C_0011421706713288580637 ..> C_0001275076681856179721
C_0011421706713288580637 o- - C_0001347152004389415025 : -deck
C_0003605716991605700936 ..> C_0011421706713288580637
C_0003605716991605700936 o- - C_0001275076681856179721 : -name
C_0003605716991605700936 o- - C_0001347152004389415025 : -hand
C_0011002318344043217156 - -> C_0003605716991605700936 : -player
C_0011002318344043217156 - -> C_0003605716991605700936 : -dealer
C_0011002318344043217156 - -> C_0011421706713288580637 : -deck

@enduml

PlantUML version 1.2020.02(Sun Mar 01 11:22:07 CET 2020)
(GPL source distribution)
Java Runtime: OpenJDK Runtime Environment
JVM: OpenJDK 64-Bit Server VM
Java Version: 21.0.8+9-Ubuntu-0ubuntu124.04.1
Operating System: Linux
Default Encoding: UTF-8
Language: en
Country: null
--></g></svg>